<mxfile host="app.diagrams.net" modified="2023-11-12T04:34:51.470Z" agent="Mozilla/5.0 (X11; Ubuntu; Linux x86_64; rv:109.0) Gecko/20100101 Firefox/119.0" etag="OqglnD3JR7aCFkCofYZb" version="22.1.0" type="device" pages="2">
  <diagram name="Page-1" id="asGGOa-vGYre_JZwUAQ7">
    <mxGraphModel dx="1479" dy="993" grid="0" gridSize="10" guides="1" tooltips="1" connect="1" arrows="1" fold="1" page="0" pageScale="1" pageWidth="1600" pageHeight="1654" math="0" shadow="0">
      <root>
        <mxCell id="0" />
        <mxCell id="1" parent="0" />
        <mxCell id="iuXRHwEwoadteJny4BUy-1" value="LIVE" style="ellipse;whiteSpace=wrap;html=1;aspect=fixed;fontSize=16;" vertex="1" parent="1">
          <mxGeometry x="-18" y="153" width="135" height="135" as="geometry" />
        </mxCell>
        <mxCell id="iuXRHwEwoadteJny4BUy-2" style="edgeStyle=orthogonalEdgeStyle;curved=1;rounded=0;orthogonalLoop=1;jettySize=auto;html=1;exitX=1;exitY=0;exitDx=0;exitDy=0;entryX=1;entryY=1;entryDx=0;entryDy=0;fontSize=12;startSize=8;endSize=8;" edge="1" parent="1" source="iuXRHwEwoadteJny4BUy-1" target="iuXRHwEwoadteJny4BUy-1">
          <mxGeometry relative="1" as="geometry">
            <Array as="points">
              <mxPoint x="97" y="133" />
              <mxPoint x="213" y="133" />
              <mxPoint x="213" y="308" />
              <mxPoint x="97" y="308" />
            </Array>
          </mxGeometry>
        </mxCell>
        <mxCell id="iuXRHwEwoadteJny4BUy-4" style="edgeStyle=orthogonalEdgeStyle;curved=1;rounded=0;orthogonalLoop=1;jettySize=auto;html=1;exitX=0;exitY=0;exitDx=0;exitDy=0;entryX=0;entryY=1;entryDx=0;entryDy=0;fontSize=12;startSize=8;endSize=8;" edge="1" parent="1" source="iuXRHwEwoadteJny4BUy-1" target="iuXRHwEwoadteJny4BUy-1">
          <mxGeometry relative="1" as="geometry">
            <Array as="points">
              <mxPoint x="2" y="133" />
              <mxPoint x="-110" y="133" />
              <mxPoint x="-110" y="308" />
              <mxPoint x="2" y="308" />
            </Array>
          </mxGeometry>
        </mxCell>
        <mxCell id="iuXRHwEwoadteJny4BUy-5" value="" style="endArrow=classic;html=1;rounded=0;fontSize=12;startSize=8;endSize=8;curved=1;entryX=0.5;entryY=0;entryDx=0;entryDy=0;" edge="1" parent="1" target="iuXRHwEwoadteJny4BUy-1">
          <mxGeometry width="50" height="50" relative="1" as="geometry">
            <mxPoint x="50" y="72" as="sourcePoint" />
            <mxPoint x="70" y="31" as="targetPoint" />
          </mxGeometry>
        </mxCell>
        <mxCell id="iuXRHwEwoadteJny4BUy-6" value="" style="endArrow=classic;html=1;rounded=0;fontSize=12;startSize=8;endSize=8;curved=1;exitX=0.5;exitY=1;exitDx=0;exitDy=0;" edge="1" parent="1" source="iuXRHwEwoadteJny4BUy-1">
          <mxGeometry width="50" height="50" relative="1" as="geometry">
            <mxPoint x="26" y="402" as="sourcePoint" />
            <mxPoint x="50" y="332" as="targetPoint" />
          </mxGeometry>
        </mxCell>
        <mxCell id="iuXRHwEwoadteJny4BUy-7" value="&lt;div style=&quot;color: rgb(218, 227, 227); background-color: rgb(31, 39, 42); font-family: &amp;quot;Droid Sans Mono&amp;quot;, &amp;quot;monospace&amp;quot;, monospace; font-weight: normal; font-size: 14px; line-height: 19px;&quot;&gt;&lt;div&gt;&lt;span style=&quot;color: #dae3e3;&quot;&gt;!&lt;/span&gt;&lt;span style=&quot;color: #f39c12;&quot;&gt;lost&lt;/span&gt;&lt;span style=&quot;color: #dae3e3;&quot;&gt;(snake, player)&lt;/span&gt;&lt;/div&gt;&lt;/div&gt;" style="text;whiteSpace=wrap;html=1;fontSize=16;fillColor=#d5e8d4;strokeColor=#82b366;" vertex="1" parent="1">
          <mxGeometry x="267" y="153" width="174" height="41" as="geometry" />
        </mxCell>
        <mxCell id="iuXRHwEwoadteJny4BUy-9" value="&lt;div align=&quot;center&quot; style=&quot;color: rgb(218, 227, 227); background-color: rgb(31, 39, 42); font-family: &amp;quot;Droid Sans Mono&amp;quot;, &amp;quot;monospace&amp;quot;, monospace; font-weight: normal; font-size: 14px; line-height: 19px;&quot;&gt;&lt;div&gt;&lt;span style=&quot;color: #f39c12;&quot;&gt;movement&lt;/span&gt;&lt;span style=&quot;color: #dae3e3;&quot;&gt;(snake);&lt;/span&gt;&lt;/div&gt;&lt;div&gt;&lt;span style=&quot;color: #dae3e3;&quot;&gt;        &lt;/span&gt;&lt;span style=&quot;color: #f39c12;&quot;&gt;eatApple&lt;/span&gt;&lt;span style=&quot;color: #dae3e3;&quot;&gt;(snake, &amp;amp;apple);&lt;/span&gt;&lt;/div&gt;&lt;/div&gt;" style="text;whiteSpace=wrap;html=1;fontSize=16;fillColor=#d5e8d4;strokeColor=#82b366;align=center;" vertex="1" parent="1">
          <mxGeometry x="236" y="206" width="230" height="57" as="geometry" />
        </mxCell>
        <mxCell id="iuXRHwEwoadteJny4BUy-10" value="&lt;div align=&quot;center&quot; style=&quot;color: rgb(218, 227, 227); background-color: rgb(31, 39, 42); font-family: &amp;quot;Droid Sans Mono&amp;quot;, &amp;quot;monospace&amp;quot;, monospace; font-weight: normal; font-size: 14px; line-height: 19px;&quot;&gt;&lt;div&gt;NULL&lt;/div&gt;&lt;/div&gt;" style="text;whiteSpace=wrap;html=1;fontSize=16;fillColor=#dae8fc;strokeColor=#6c8ebf;align=center;" vertex="1" parent="1">
          <mxGeometry x="-313" y="162" width="174" height="41" as="geometry" />
        </mxCell>
        <mxCell id="iuXRHwEwoadteJny4BUy-11" value="&lt;div align=&quot;center&quot; style=&quot;color: rgb(218, 227, 227); background-color: rgb(31, 39, 42); font-family: &amp;quot;Droid Sans Mono&amp;quot;, &amp;quot;monospace&amp;quot;, monospace; font-weight: normal; font-size: 14px; line-height: 19px;&quot;&gt;&lt;div&gt;&lt;span style=&quot;color: #f39c12;&quot;&gt;draw&lt;/span&gt;&lt;span style=&quot;color: #dae3e3;&quot;&gt;(player1, player2);&lt;/span&gt;&lt;/div&gt;&lt;/div&gt;" style="text;whiteSpace=wrap;html=1;fontSize=16;fillColor=#dae8fc;strokeColor=#6c8ebf;align=center;" vertex="1" parent="1">
          <mxGeometry x="-337" y="214" width="222" height="41" as="geometry" />
        </mxCell>
        <mxCell id="iuXRHwEwoadteJny4BUy-12" value="&lt;div align=&quot;center&quot; style=&quot;color: rgb(218, 227, 227); background-color: rgb(31, 39, 42); font-family: &amp;quot;Droid Sans Mono&amp;quot;, &amp;quot;monospace&amp;quot;, monospace; font-weight: normal; font-size: 14px; line-height: 19px;&quot;&gt;&lt;div&gt;&lt;span style=&quot;color: #0ca1a6;&quot;&gt;static&lt;/span&gt;&lt;span style=&quot;color: #dae3e3;&quot;&gt; Snake player1 = &lt;/span&gt;&lt;span style=&quot;color: #f39c12;&quot;&gt;createSnake&lt;/span&gt;&lt;span style=&quot;color: #dae3e3;&quot;&gt;(&lt;/span&gt;...);&lt;/div&gt;&lt;div&gt;&lt;span style=&quot;color: #0ca1a6;&quot;&gt;static&lt;/span&gt;&lt;span style=&quot;color: #dae3e3;&quot;&gt; Snake player2 = &lt;/span&gt;&lt;span style=&quot;color: #f39c12;&quot;&gt;createSnake&lt;/span&gt;&lt;span style=&quot;color: #dae3e3;&quot;&gt;(&lt;/span&gt;&lt;span style=&quot;color: #dae3e3;&quot;&gt;...);&lt;/span&gt;&lt;/div&gt;&lt;div&gt;&lt;span style=&quot;color: #0ca1a6;&quot;&gt;static&lt;/span&gt;&lt;span style=&quot;color: #dae3e3;&quot;&gt; Fruit apple = &lt;/span&gt;&lt;span style=&quot;color: #f39c12;&quot;&gt;createFruit&lt;/span&gt;&lt;span style=&quot;color: #dae3e3;&quot;&gt;(&lt;/span&gt;&lt;span style=&quot;color: #f39c12;&quot;&gt;random&lt;/span&gt;&lt;span style=&quot;color: #dae3e3;&quot;&gt;(&lt;/span&gt;...);&lt;/div&gt;&lt;/div&gt;" style="text;whiteSpace=wrap;html=1;fontSize=16;align=center;fillColor=#fff2cc;strokeColor=#d6b656;" vertex="1" parent="1">
          <mxGeometry x="-225.5" y="-19" width="550" height="82" as="geometry" />
        </mxCell>
        <mxCell id="iuXRHwEwoadteJny4BUy-13" value="&lt;div align=&quot;center&quot; style=&quot;color: rgb(218, 227, 227); background-color: rgb(31, 39, 42); font-family: &amp;quot;Droid Sans Mono&amp;quot;, &amp;quot;monospace&amp;quot;, monospace; font-weight: normal; font-size: 14px; line-height: 19px;&quot;&gt;&lt;div&gt;NULL&lt;/div&gt;&lt;/div&gt;" style="text;whiteSpace=wrap;html=1;fontSize=16;fillColor=#fff2cc;strokeColor=#d6b656;align=center;" vertex="1" parent="1">
          <mxGeometry x="-37.5" y="-72" width="174" height="41" as="geometry" />
        </mxCell>
        <mxCell id="iuXRHwEwoadteJny4BUy-17" value="&lt;div align=&quot;center&quot; style=&quot;color: rgb(218, 227, 227); background-color: rgb(31, 39, 42); font-family: &amp;quot;Droid Sans Mono&amp;quot;, &amp;quot;monospace&amp;quot;, monospace; font-weight: normal; font-size: 14px; line-height: 19px;&quot;&gt;&lt;div&gt;NULL&lt;/div&gt;&lt;/div&gt;" style="text;whiteSpace=wrap;html=1;fontSize=16;fillColor=#f8cecc;strokeColor=#b85450;align=center;" vertex="1" parent="1">
          <mxGeometry x="-37.5" y="394" width="174" height="41" as="geometry" />
        </mxCell>
        <mxCell id="iuXRHwEwoadteJny4BUy-19" value="&lt;div align=&quot;center&quot; style=&quot;color: rgb(218, 227, 227); background-color: rgb(31, 39, 42); font-family: &amp;quot;Droid Sans Mono&amp;quot;, &amp;quot;monospace&amp;quot;, monospace; font-weight: normal; font-size: 14px; line-height: 19px;&quot;&gt;&lt;div&gt;&lt;span style=&quot;color: #f39c12;&quot;&gt;lost&lt;/span&gt;&lt;span style=&quot;color: #dae3e3;&quot;&gt;(snake, player)&lt;/span&gt;&lt;/div&gt;&lt;/div&gt;" style="text;whiteSpace=wrap;html=1;fontSize=16;fillColor=#f8cecc;strokeColor=#b85450;align=center;" vertex="1" parent="1">
          <mxGeometry x="-44.49764705882342" y="344.99529411764706" width="188" height="41" as="geometry" />
        </mxCell>
      </root>
    </mxGraphModel>
  </diagram>
  <diagram id="wt9-NoGER84MwGyHTOiy" name="Page-2">
    <mxGraphModel dx="2840" dy="1175" grid="0" gridSize="10" guides="1" tooltips="1" connect="1" arrows="1" fold="1" page="0" pageScale="1" pageWidth="1600" pageHeight="1654" math="0" shadow="0">
      <root>
        <mxCell id="0" />
        <mxCell id="1" parent="0" />
        <mxCell id="Oq9BRLi-8kvjzh20djfU-10" value="" style="group" vertex="1" connectable="0" parent="1">
          <mxGeometry x="241.996666666667" y="-105" width="80" height="80" as="geometry" />
        </mxCell>
        <mxCell id="Oq9BRLi-8kvjzh20djfU-8" value="" style="ellipse;whiteSpace=wrap;html=1;aspect=fixed;fontSize=16;strokeWidth=3;fillColor=#dae8fc;strokeColor=#6c8ebf;" vertex="1" parent="Oq9BRLi-8kvjzh20djfU-10">
          <mxGeometry width="80" height="80" as="geometry" />
        </mxCell>
        <mxCell id="Oq9BRLi-8kvjzh20djfU-9" value="" style="endArrow=classic;html=1;rounded=0;fontSize=12;curved=1;shape=flexArrow;strokeWidth=5;exitX=0.5;exitY=1;exitDx=0;exitDy=0;entryX=0.5;entryY=0;entryDx=0;entryDy=0;" edge="1" parent="Oq9BRLi-8kvjzh20djfU-10" source="Oq9BRLi-8kvjzh20djfU-8" target="Oq9BRLi-8kvjzh20djfU-8">
          <mxGeometry width="50" height="50" relative="1" as="geometry">
            <mxPoint x="45" y="75" as="sourcePoint" />
            <mxPoint x="47" y="10" as="targetPoint" />
          </mxGeometry>
        </mxCell>
        <mxCell id="Oq9BRLi-8kvjzh20djfU-109" style="edgeStyle=none;curved=1;rounded=0;orthogonalLoop=1;jettySize=auto;html=1;exitX=0;exitY=0;exitDx=0;exitDy=0;entryX=1;entryY=0;entryDx=0;entryDy=0;fontSize=12;startSize=8;endSize=8;" edge="1" parent="Oq9BRLi-8kvjzh20djfU-10" source="Oq9BRLi-8kvjzh20djfU-8" target="Oq9BRLi-8kvjzh20djfU-8">
          <mxGeometry relative="1" as="geometry">
            <Array as="points">
              <mxPoint x="-14" y="-14" />
              <mxPoint x="27" y="-72" />
              <mxPoint x="102" y="-24" />
            </Array>
          </mxGeometry>
        </mxCell>
        <mxCell id="Oq9BRLi-8kvjzh20djfU-19" value="" style="group" vertex="1" connectable="0" parent="1">
          <mxGeometry x="241.996666666667" y="324" width="80" height="80" as="geometry" />
        </mxCell>
        <mxCell id="Oq9BRLi-8kvjzh20djfU-15" value="" style="ellipse;whiteSpace=wrap;html=1;aspect=fixed;fontSize=16;strokeWidth=3;rotation=-180;fillColor=#f8cecc;strokeColor=#b85450;" vertex="1" parent="Oq9BRLi-8kvjzh20djfU-19">
          <mxGeometry width="80" height="80" as="geometry" />
        </mxCell>
        <mxCell id="Oq9BRLi-8kvjzh20djfU-16" value="" style="endArrow=classic;html=1;rounded=0;fontSize=12;curved=1;shape=flexArrow;strokeWidth=5;exitX=0.5;exitY=1;exitDx=0;exitDy=0;entryX=0.5;entryY=0;entryDx=0;entryDy=0;" edge="1" parent="Oq9BRLi-8kvjzh20djfU-19" source="Oq9BRLi-8kvjzh20djfU-15" target="Oq9BRLi-8kvjzh20djfU-15">
          <mxGeometry width="50" height="50" relative="1" as="geometry">
            <mxPoint x="172" y="-74" as="sourcePoint" />
            <mxPoint x="174" y="-139" as="targetPoint" />
          </mxGeometry>
        </mxCell>
        <mxCell id="Oq9BRLi-8kvjzh20djfU-110" style="edgeStyle=none;curved=1;rounded=0;orthogonalLoop=1;jettySize=auto;html=1;exitX=1;exitY=0;exitDx=0;exitDy=0;entryX=0;entryY=0;entryDx=0;entryDy=0;fontSize=12;startSize=8;endSize=8;" edge="1" parent="Oq9BRLi-8kvjzh20djfU-19" source="Oq9BRLi-8kvjzh20djfU-15" target="Oq9BRLi-8kvjzh20djfU-15">
          <mxGeometry relative="1" as="geometry">
            <Array as="points">
              <mxPoint x="-38.99666666666701" y="102" />
              <mxPoint x="9.00333333333299" y="146" />
              <mxPoint x="73.00333333333299" y="139" />
              <mxPoint x="123.00333333333299" y="106" />
            </Array>
          </mxGeometry>
        </mxCell>
        <mxCell id="Oq9BRLi-8kvjzh20djfU-43" style="edgeStyle=orthogonalEdgeStyle;curved=1;rounded=0;orthogonalLoop=1;jettySize=auto;html=1;exitX=0;exitY=0.5;exitDx=0;exitDy=0;entryX=1;entryY=0.5;entryDx=0;entryDy=0;fontSize=12;startSize=8;endSize=8;" edge="1" parent="1" source="Oq9BRLi-8kvjzh20djfU-28" target="Oq9BRLi-8kvjzh20djfU-8">
          <mxGeometry relative="1" as="geometry" />
        </mxCell>
        <mxCell id="Oq9BRLi-8kvjzh20djfU-44" style="edgeStyle=orthogonalEdgeStyle;curved=1;rounded=0;orthogonalLoop=1;jettySize=auto;html=1;exitX=1;exitY=0.5;exitDx=0;exitDy=0;entryX=0;entryY=0.5;entryDx=0;entryDy=0;fontSize=12;startSize=8;endSize=8;" edge="1" parent="1" source="Oq9BRLi-8kvjzh20djfU-28" target="Oq9BRLi-8kvjzh20djfU-15">
          <mxGeometry relative="1" as="geometry" />
        </mxCell>
        <mxCell id="Oq9BRLi-8kvjzh20djfU-45" style="edgeStyle=orthogonalEdgeStyle;curved=1;rounded=0;orthogonalLoop=1;jettySize=auto;html=1;exitX=1;exitY=0.5;exitDx=0;exitDy=0;entryX=0;entryY=0.5;entryDx=0;entryDy=0;fontSize=12;startSize=8;endSize=8;" edge="1" parent="1" source="Oq9BRLi-8kvjzh20djfU-21" target="Oq9BRLi-8kvjzh20djfU-8">
          <mxGeometry relative="1" as="geometry" />
        </mxCell>
        <mxCell id="Oq9BRLi-8kvjzh20djfU-46" style="edgeStyle=orthogonalEdgeStyle;curved=1;rounded=0;orthogonalLoop=1;jettySize=auto;html=1;exitX=0;exitY=0.5;exitDx=0;exitDy=0;entryX=1;entryY=0.5;entryDx=0;entryDy=0;fontSize=12;startSize=8;endSize=8;" edge="1" parent="1" source="Oq9BRLi-8kvjzh20djfU-21" target="Oq9BRLi-8kvjzh20djfU-15">
          <mxGeometry relative="1" as="geometry" />
        </mxCell>
        <mxCell id="Oq9BRLi-8kvjzh20djfU-49" style="edgeStyle=orthogonalEdgeStyle;curved=1;rounded=0;orthogonalLoop=1;jettySize=auto;html=1;exitX=0;exitY=0;exitDx=0;exitDy=0;entryX=1;entryY=0;entryDx=0;entryDy=0;fontSize=12;startSize=8;endSize=8;" edge="1" parent="1" source="Oq9BRLi-8kvjzh20djfU-8" target="Oq9BRLi-8kvjzh20djfU-21">
          <mxGeometry relative="1" as="geometry" />
        </mxCell>
        <mxCell id="Oq9BRLi-8kvjzh20djfU-51" style="edgeStyle=orthogonalEdgeStyle;curved=1;rounded=0;orthogonalLoop=1;jettySize=auto;html=1;exitX=1;exitY=0;exitDx=0;exitDy=0;entryX=0;entryY=0;entryDx=0;entryDy=0;fontSize=12;startSize=8;endSize=8;" edge="1" parent="1" source="Oq9BRLi-8kvjzh20djfU-8" target="Oq9BRLi-8kvjzh20djfU-28">
          <mxGeometry relative="1" as="geometry" />
        </mxCell>
        <mxCell id="Oq9BRLi-8kvjzh20djfU-52" style="edgeStyle=orthogonalEdgeStyle;curved=1;rounded=0;orthogonalLoop=1;jettySize=auto;html=1;exitX=0;exitY=0;exitDx=0;exitDy=0;entryX=1;entryY=0;entryDx=0;entryDy=0;fontSize=12;startSize=8;endSize=8;" edge="1" parent="1" source="Oq9BRLi-8kvjzh20djfU-15" target="Oq9BRLi-8kvjzh20djfU-28">
          <mxGeometry relative="1" as="geometry" />
        </mxCell>
        <mxCell id="Oq9BRLi-8kvjzh20djfU-53" style="edgeStyle=orthogonalEdgeStyle;curved=1;rounded=0;orthogonalLoop=1;jettySize=auto;html=1;exitX=1;exitY=0;exitDx=0;exitDy=0;entryX=0;entryY=0;entryDx=0;entryDy=0;fontSize=12;startSize=8;endSize=8;" edge="1" parent="1" source="Oq9BRLi-8kvjzh20djfU-15" target="Oq9BRLi-8kvjzh20djfU-21">
          <mxGeometry relative="1" as="geometry" />
        </mxCell>
        <mxCell id="Oq9BRLi-8kvjzh20djfU-54" value="UP" style="text;html=1;align=center;verticalAlign=middle;resizable=0;points=[];autosize=1;strokeColor=none;fillColor=none;fontSize=16;" vertex="1" parent="1">
          <mxGeometry x="259" y="-136" width="40" height="31" as="geometry" />
        </mxCell>
        <mxCell id="Oq9BRLi-8kvjzh20djfU-55" value="DOWN" style="text;html=1;align=center;verticalAlign=middle;resizable=0;points=[];autosize=1;strokeColor=none;fillColor=none;fontSize=16;" vertex="1" parent="1">
          <mxGeometry x="248" y="404" width="68" height="31" as="geometry" />
        </mxCell>
        <mxCell id="Oq9BRLi-8kvjzh20djfU-57" value="LEFT" style="text;html=1;align=center;verticalAlign=middle;resizable=0;points=[];autosize=1;strokeColor=none;fillColor=none;fontSize=16;" vertex="1" parent="1">
          <mxGeometry x="-39" y="133.5" width="57" height="31" as="geometry" />
        </mxCell>
        <mxCell id="Oq9BRLi-8kvjzh20djfU-21" value="" style="ellipse;whiteSpace=wrap;html=1;aspect=fixed;fontSize=16;strokeWidth=3;rotation=-90;fillColor=#d5e8d4;strokeColor=#82b366;" vertex="1" parent="1">
          <mxGeometry x="-56" y="105" width="80" height="80" as="geometry" />
        </mxCell>
        <mxCell id="Oq9BRLi-8kvjzh20djfU-22" value="" style="endArrow=classic;html=1;rounded=0;fontSize=12;curved=1;shape=flexArrow;strokeWidth=5;exitX=0.5;exitY=1;exitDx=0;exitDy=0;entryX=0.5;entryY=0;entryDx=0;entryDy=0;" edge="1" parent="1" source="Oq9BRLi-8kvjzh20djfU-21" target="Oq9BRLi-8kvjzh20djfU-21">
          <mxGeometry width="50" height="50" relative="1" as="geometry">
            <mxPoint x="393" y="396" as="sourcePoint" />
            <mxPoint x="458" y="398" as="targetPoint" />
          </mxGeometry>
        </mxCell>
        <mxCell id="Oq9BRLi-8kvjzh20djfU-71" value="LEFT" style="text;html=1;align=center;verticalAlign=middle;resizable=0;points=[];autosize=1;strokeColor=none;fillColor=none;fontSize=16;" vertex="1" parent="1">
          <mxGeometry x="-113" y="129.5" width="57" height="31" as="geometry" />
        </mxCell>
        <mxCell id="Oq9BRLi-8kvjzh20djfU-78" value="" style="group;fillColor=#dae8fc;strokeColor=#6c8ebf;" vertex="1" connectable="0" parent="1">
          <mxGeometry x="540.9966666666668" y="-128.74823529411756" width="448" height="127.49823529411756" as="geometry" />
        </mxCell>
        <mxCell id="Oq9BRLi-8kvjzh20djfU-58" value="&lt;div align=&quot;center&quot; style=&quot;color: rgb(218, 227, 227); background-color: rgb(31, 39, 42); font-family: &amp;quot;Droid Sans Mono&amp;quot;, &amp;quot;monospace&amp;quot;, monospace; font-weight: normal; font-size: 14px; line-height: 19px;&quot;&gt;&lt;div&gt;&lt;span style=&quot;color: #f39c12;&quot;&gt;digitalRead&lt;/span&gt;&lt;span style=&quot;color: #dae3e3;&quot;&gt;(&lt;/span&gt;&lt;span style=&quot;color: #f39c12;&quot;&gt;snake&lt;/span&gt;&lt;span style=&quot;color: #dae3e3;&quot;&gt;-&amp;gt;&lt;/span&gt;&lt;span style=&quot;color: #f39c12;&quot;&gt;controls&lt;/span&gt;&lt;span style=&quot;color: #dae3e3;&quot;&gt;[&lt;/span&gt;&lt;span style=&quot;color: #7fcbcd;&quot;&gt;2&lt;/span&gt;&lt;span style=&quot;color: #dae3e3;&quot;&gt;])&lt;/span&gt;&lt;/div&gt;&lt;/div&gt;" style="text;whiteSpace=wrap;html=1;fontSize=16;align=center;" vertex="1" parent="Oq9BRLi-8kvjzh20djfU-78">
          <mxGeometry x="79.5" width="289" height="41" as="geometry" />
        </mxCell>
        <mxCell id="Oq9BRLi-8kvjzh20djfU-77" value="&lt;div style=&quot;color: rgb(218, 227, 227); background-color: rgb(31, 39, 42); font-family: &amp;quot;Droid Sans Mono&amp;quot;, &amp;quot;monospace&amp;quot;, monospace; font-weight: normal; font-size: 14px; line-height: 19px;&quot;&gt;&lt;div&gt;updatePosition&lt;span style=&quot;color: #dae3e3;&quot;&gt;(*snake);&lt;/span&gt;&lt;/div&gt;&lt;div&gt;&lt;span style=&quot;color: #dae3e3;&quot;&gt;        (&lt;/span&gt;&lt;span style=&quot;color: #f39c12;&quot;&gt;snake&lt;/span&gt;&lt;span style=&quot;color: #dae3e3;&quot;&gt;-&amp;gt;&lt;/span&gt;&lt;span style=&quot;color: #f39c12;&quot;&gt;positionSnake&lt;/span&gt;&lt;span style=&quot;color: #dae3e3;&quot;&gt;-&amp;gt;&lt;/span&gt;&lt;span style=&quot;color: #f39c12;&quot;&gt;x&lt;/span&gt;&lt;span style=&quot;color: #dae3e3;&quot;&gt;) += (&lt;/span&gt;&lt;span style=&quot;color: #f39c12;&quot;&gt;snake&lt;/span&gt;&lt;span style=&quot;color: #dae3e3;&quot;&gt;-&amp;gt;&lt;/span&gt;&lt;span style=&quot;color: #f39c12;&quot;&gt;velocity&lt;/span&gt;&lt;span style=&quot;color: #dae3e3;&quot;&gt; + &lt;/span&gt;&lt;span style=&quot;color: #7fcbcd;&quot;&gt;1&lt;/span&gt;&lt;span style=&quot;color: #dae3e3;&quot;&gt;);&lt;/span&gt;&lt;/div&gt;&lt;/div&gt;" style="text;html=1;align=center;verticalAlign=middle;resizable=0;points=[];autosize=1;strokeColor=none;fillColor=none;fontSize=16;" vertex="1" parent="Oq9BRLi-8kvjzh20djfU-78">
          <mxGeometry y="57.99823529411756" width="448" height="50" as="geometry" />
        </mxCell>
        <mxCell id="Oq9BRLi-8kvjzh20djfU-81" value="" style="group;fillColor=#dae8fc;strokeColor=#6c8ebf;" vertex="1" connectable="0" parent="1">
          <mxGeometry x="-440.00142857142845" y="-127.4989495798319" width="458" height="124.99966386554624" as="geometry" />
        </mxCell>
        <mxCell id="Oq9BRLi-8kvjzh20djfU-60" value="&lt;div align=&quot;center&quot; style=&quot;color: rgb(218, 227, 227); background-color: rgb(31, 39, 42); font-family: &amp;quot;Droid Sans Mono&amp;quot;, &amp;quot;monospace&amp;quot;, monospace; font-weight: normal; font-size: 14px; line-height: 19px;&quot;&gt;&lt;div&gt;&lt;span style=&quot;color: #f39c12;&quot;&gt;digitalRead&lt;/span&gt;&lt;span style=&quot;color: #dae3e3;&quot;&gt;(&lt;/span&gt;&lt;span style=&quot;color: #f39c12;&quot;&gt;snake&lt;/span&gt;&lt;span style=&quot;color: #dae3e3;&quot;&gt;-&amp;gt;&lt;/span&gt;&lt;span style=&quot;color: #f39c12;&quot;&gt;controls&lt;/span&gt;&lt;span style=&quot;color: #dae3e3;&quot;&gt;[&lt;/span&gt;&lt;span style=&quot;color: #7fcbcd;&quot;&gt;3&lt;/span&gt;&lt;span style=&quot;color: #dae3e3;&quot;&gt;])&lt;/span&gt;&lt;/div&gt;&lt;/div&gt;" style="text;whiteSpace=wrap;html=1;fontSize=16;align=center;" vertex="1" parent="Oq9BRLi-8kvjzh20djfU-81">
          <mxGeometry x="84.5" width="289" height="41" as="geometry" />
        </mxCell>
        <mxCell id="Oq9BRLi-8kvjzh20djfU-80" value="&lt;div align=&quot;center&quot; style=&quot;color: rgb(218, 227, 227); background-color: rgb(31, 39, 42); font-family: &amp;quot;Droid Sans Mono&amp;quot;, &amp;quot;monospace&amp;quot;, monospace; font-weight: normal; font-size: 14px; line-height: 19px;&quot;&gt;&lt;div&gt;&lt;span style=&quot;color: #f39c12;&quot;&gt;pdatePosition&lt;/span&gt;&lt;span style=&quot;color: #dae3e3;&quot;&gt;(*snake);&lt;/span&gt;&lt;/div&gt;&lt;div&gt;&lt;span style=&quot;color: #dae3e3;&quot;&gt;        (&lt;/span&gt;&lt;span style=&quot;color: #f39c12;&quot;&gt;snake&lt;/span&gt;&lt;span style=&quot;color: #dae3e3;&quot;&gt;-&amp;gt;&lt;/span&gt;&lt;span style=&quot;color: #f39c12;&quot;&gt;positionSnake&lt;/span&gt;&lt;span style=&quot;color: #dae3e3;&quot;&gt;-&amp;gt;&lt;/span&gt;&lt;span style=&quot;color: #f39c12;&quot;&gt;x&lt;/span&gt;&lt;span style=&quot;color: #dae3e3;&quot;&gt;) -= (&lt;/span&gt;&lt;span style=&quot;color: #f39c12;&quot;&gt;snake&lt;/span&gt;&lt;span style=&quot;color: #dae3e3;&quot;&gt;-&amp;gt;&lt;/span&gt;&lt;span style=&quot;color: #f39c12;&quot;&gt;velocity&lt;/span&gt;&lt;span style=&quot;color: #dae3e3;&quot;&gt; + &lt;/span&gt;&lt;span style=&quot;color: #7fcbcd;&quot;&gt;1&lt;/span&gt;&lt;span style=&quot;color: #dae3e3;&quot;&gt;);&lt;/span&gt;&lt;/div&gt;&lt;/div&gt;" style="text;whiteSpace=wrap;html=1;fontSize=16;align=center;" vertex="1" parent="Oq9BRLi-8kvjzh20djfU-81">
          <mxGeometry y="64.99966386554624" width="458" height="60" as="geometry" />
        </mxCell>
        <mxCell id="Oq9BRLi-8kvjzh20djfU-83" value="&lt;div align=&quot;center&quot; style=&quot;color: rgb(218, 227, 227); background-color: rgb(31, 39, 42); font-family: &amp;quot;Droid Sans Mono&amp;quot;, &amp;quot;monospace&amp;quot;, monospace; font-weight: normal; font-size: 14px; line-height: 19px;&quot;&gt;&lt;div&gt;&lt;span style=&quot;color: #f39c12;&quot;&gt;updatePosition&lt;/span&gt;&lt;span style=&quot;color: #dae3e3;&quot;&gt;(*snake);&lt;/span&gt;&lt;/div&gt;&lt;div&gt;&lt;span style=&quot;color: #dae3e3;&quot;&gt;        (&lt;/span&gt;&lt;span style=&quot;color: #f39c12;&quot;&gt;snake&lt;/span&gt;&lt;span style=&quot;color: #dae3e3;&quot;&gt;-&amp;gt;&lt;/span&gt;&lt;span style=&quot;color: #f39c12;&quot;&gt;positionSnake&lt;/span&gt;&lt;span style=&quot;color: #dae3e3;&quot;&gt;-&amp;gt;&lt;/span&gt;&lt;span style=&quot;color: #f39c12;&quot;&gt;y&lt;/span&gt;&lt;span style=&quot;color: #dae3e3;&quot;&gt;) -= (&lt;/span&gt;&lt;span style=&quot;color: #f39c12;&quot;&gt;snake&lt;/span&gt;&lt;span style=&quot;color: #dae3e3;&quot;&gt;-&amp;gt;&lt;/span&gt;&lt;span style=&quot;color: #f39c12;&quot;&gt;velocity&lt;/span&gt;&lt;span style=&quot;color: #dae3e3;&quot;&gt; + &lt;/span&gt;&lt;span style=&quot;color: #7fcbcd;&quot;&gt;1&lt;/span&gt;&lt;span style=&quot;color: #dae3e3;&quot;&gt;);&lt;/span&gt;&lt;/div&gt;&lt;/div&gt;" style="text;whiteSpace=wrap;html=1;fontSize=16;align=center;fillColor=#dae8fc;strokeColor=#6c8ebf;" vertex="1" parent="1">
          <mxGeometry x="52.99666666666701" y="-233" width="458" height="60" as="geometry" />
        </mxCell>
        <mxCell id="Oq9BRLi-8kvjzh20djfU-88" value="" style="group;fillColor=#f8cecc;strokeColor=#b85450;" vertex="1" connectable="0" parent="1">
          <mxGeometry x="536.0011764705882" y="275.9964705882353" width="458" height="124.50803921568644" as="geometry" />
        </mxCell>
        <mxCell id="Oq9BRLi-8kvjzh20djfU-64" value="&lt;div align=&quot;center&quot; style=&quot;color: rgb(218, 227, 227); background-color: rgb(31, 39, 42); font-family: &amp;quot;Droid Sans Mono&amp;quot;, &amp;quot;monospace&amp;quot;, monospace; font-weight: normal; font-size: 14px; line-height: 19px;&quot;&gt;&lt;div&gt;&lt;span style=&quot;color: #f39c12;&quot;&gt;digitalRead&lt;/span&gt;&lt;span style=&quot;color: #dae3e3;&quot;&gt;(&lt;/span&gt;&lt;span style=&quot;color: #f39c12;&quot;&gt;snake&lt;/span&gt;&lt;span style=&quot;color: #dae3e3;&quot;&gt;-&amp;gt;&lt;/span&gt;&lt;span style=&quot;color: #f39c12;&quot;&gt;controls&lt;/span&gt;&lt;span style=&quot;color: #dae3e3;&quot;&gt;[&lt;/span&gt;&lt;span style=&quot;color: #7fcbcd;&quot;&gt;2&lt;/span&gt;&lt;span style=&quot;color: #dae3e3;&quot;&gt;])&lt;/span&gt;&lt;/div&gt;&lt;/div&gt;" style="text;whiteSpace=wrap;html=1;fontSize=16;align=center;" vertex="1" parent="Oq9BRLi-8kvjzh20djfU-88">
          <mxGeometry x="84.5" width="289" height="41" as="geometry" />
        </mxCell>
        <mxCell id="Oq9BRLi-8kvjzh20djfU-87" value="&lt;div align=&quot;center&quot; style=&quot;color: rgb(218, 227, 227); background-color: rgb(31, 39, 42); font-family: &amp;quot;Droid Sans Mono&amp;quot;, &amp;quot;monospace&amp;quot;, monospace; font-weight: normal; font-size: 14px; line-height: 19px;&quot;&gt;&lt;div&gt;&lt;span style=&quot;color: #f39c12;&quot;&gt;updatePosition&lt;/span&gt;&lt;span style=&quot;color: #dae3e3;&quot;&gt;(*snake);&lt;/span&gt;&lt;/div&gt;&lt;div&gt;&lt;span style=&quot;color: #dae3e3;&quot;&gt;        (&lt;/span&gt;&lt;span style=&quot;color: #f39c12;&quot;&gt;snake&lt;/span&gt;&lt;span style=&quot;color: #dae3e3;&quot;&gt;-&amp;gt;&lt;/span&gt;&lt;span style=&quot;color: #f39c12;&quot;&gt;positionSnake&lt;/span&gt;&lt;span style=&quot;color: #dae3e3;&quot;&gt;-&amp;gt;&lt;/span&gt;&lt;span style=&quot;color: #f39c12;&quot;&gt;x&lt;/span&gt;&lt;span style=&quot;color: #dae3e3;&quot;&gt;) += (&lt;/span&gt;&lt;span style=&quot;color: #f39c12;&quot;&gt;snake&lt;/span&gt;&lt;span style=&quot;color: #dae3e3;&quot;&gt;-&amp;gt;&lt;/span&gt;&lt;span style=&quot;color: #f39c12;&quot;&gt;velocity&lt;/span&gt;&lt;span style=&quot;color: #dae3e3;&quot;&gt; + &lt;/span&gt;&lt;span style=&quot;color: #7fcbcd;&quot;&gt;1&lt;/span&gt;&lt;span style=&quot;color: #dae3e3;&quot;&gt;);&lt;/span&gt;&lt;/div&gt;&lt;/div&gt;" style="text;whiteSpace=wrap;html=1;fontSize=16;align=center;" vertex="1" parent="Oq9BRLi-8kvjzh20djfU-88">
          <mxGeometry y="64.50803921568644" width="458" height="60" as="geometry" />
        </mxCell>
        <mxCell id="Oq9BRLi-8kvjzh20djfU-92" value="&lt;div align=&quot;center&quot; style=&quot;color: rgb(218, 227, 227); background-color: rgb(31, 39, 42); font-family: &amp;quot;Droid Sans Mono&amp;quot;, &amp;quot;monospace&amp;quot;, monospace; font-weight: normal; font-size: 14px; line-height: 19px;&quot;&gt;&lt;div&gt;&lt;span style=&quot;color: #f39c12;&quot;&gt;updatePosition&lt;/span&gt;&lt;span style=&quot;color: #dae3e3;&quot;&gt;(*snake);&lt;/span&gt;&lt;/div&gt;&lt;div&gt;&lt;span style=&quot;color: #dae3e3;&quot;&gt;        (&lt;/span&gt;&lt;span style=&quot;color: #f39c12;&quot;&gt;snake&lt;/span&gt;&lt;span style=&quot;color: #dae3e3;&quot;&gt;-&amp;gt;&lt;/span&gt;&lt;span style=&quot;color: #f39c12;&quot;&gt;positionSnake&lt;/span&gt;&lt;span style=&quot;color: #dae3e3;&quot;&gt;-&amp;gt;&lt;/span&gt;&lt;span style=&quot;color: #f39c12;&quot;&gt;y&lt;/span&gt;&lt;span style=&quot;color: #dae3e3;&quot;&gt;) += (&lt;/span&gt;&lt;span style=&quot;color: #f39c12;&quot;&gt;snake&lt;/span&gt;&lt;span style=&quot;color: #dae3e3;&quot;&gt;-&amp;gt;&lt;/span&gt;&lt;span style=&quot;color: #f39c12;&quot;&gt;velocity&lt;/span&gt;&lt;span style=&quot;color: #dae3e3;&quot;&gt; + &lt;/span&gt;&lt;span style=&quot;color: #7fcbcd;&quot;&gt;1&lt;/span&gt;&lt;span style=&quot;color: #dae3e3;&quot;&gt;);&lt;/span&gt;&lt;/div&gt;&lt;/div&gt;" style="text;whiteSpace=wrap;html=1;fontSize=16;align=center;fillColor=#f8cecc;strokeColor=#b85450;" vertex="1" parent="1">
          <mxGeometry x="52.99666666666701" y="477" width="458" height="60" as="geometry" />
        </mxCell>
        <mxCell id="Oq9BRLi-8kvjzh20djfU-94" value="" style="group;" vertex="1" connectable="0" parent="1">
          <mxGeometry x="19.497647058823645" y="4.289999999999999" width="525" height="100.71428571428578" as="geometry" />
        </mxCell>
        <mxCell id="Oq9BRLi-8kvjzh20djfU-66" value="&lt;div align=&quot;center&quot; style=&quot;color: rgb(218, 227, 227); background-color: rgb(31, 39, 42); font-family: &amp;quot;Droid Sans Mono&amp;quot;, &amp;quot;monospace&amp;quot;, monospace; font-weight: normal; font-size: 14px; line-height: 19px;&quot;&gt;&lt;div&gt;&lt;span style=&quot;color: #f39c12;&quot;&gt;digitalRead&lt;/span&gt;&lt;span style=&quot;color: #dae3e3;&quot;&gt;(&lt;/span&gt;&lt;span style=&quot;color: #f39c12;&quot;&gt;snake&lt;/span&gt;&lt;span style=&quot;color: #dae3e3;&quot;&gt;-&amp;gt;&lt;/span&gt;&lt;span style=&quot;color: #f39c12;&quot;&gt;controls&lt;/span&gt;&lt;span style=&quot;color: #dae3e3;&quot;&gt;[&lt;/span&gt;&lt;span style=&quot;color: #7fcbcd;&quot;&gt;0&lt;/span&gt;&lt;span style=&quot;color: #dae3e3;&quot;&gt;])&lt;/span&gt;&lt;/div&gt;&lt;/div&gt;" style="text;whiteSpace=wrap;html=1;fontSize=16;align=center;fillColor=#e1d5e7;strokeColor=#9673a6;" vertex="1" parent="Oq9BRLi-8kvjzh20djfU-94">
          <mxGeometry x="277" width="248" height="33" as="geometry" />
        </mxCell>
        <mxCell id="Oq9BRLi-8kvjzh20djfU-70" value="&lt;div align=&quot;center&quot; style=&quot;color: rgb(218, 227, 227); background-color: rgb(31, 39, 42); font-family: &amp;quot;Droid Sans Mono&amp;quot;, &amp;quot;monospace&amp;quot;, monospace; font-weight: normal; font-size: 14px; line-height: 19px;&quot;&gt;&lt;div&gt;&lt;span style=&quot;color: #f39c12;&quot;&gt;digitalRead&lt;/span&gt;&lt;span style=&quot;color: #dae3e3;&quot;&gt;(&lt;/span&gt;&lt;span style=&quot;color: #f39c12;&quot;&gt;snake&lt;/span&gt;&lt;span style=&quot;color: #dae3e3;&quot;&gt;-&amp;gt;&lt;/span&gt;&lt;span style=&quot;color: #f39c12;&quot;&gt;controls&lt;/span&gt;&lt;span style=&quot;color: #dae3e3;&quot;&gt;[&lt;/span&gt;&lt;span style=&quot;color: #7fcbcd;&quot;&gt;0&lt;/span&gt;&lt;span style=&quot;color: #dae3e3;&quot;&gt;])&lt;/span&gt;&lt;/div&gt;&lt;/div&gt;" style="text;whiteSpace=wrap;html=1;fontSize=16;align=center;fillColor=#d5e8d4;strokeColor=#82b366;" vertex="1" parent="Oq9BRLi-8kvjzh20djfU-94">
          <mxGeometry width="248" height="33" as="geometry" />
        </mxCell>
        <mxCell id="Oq9BRLi-8kvjzh20djfU-93" value="&lt;div style=&quot;color: rgb(218, 227, 227); background-color: rgb(31, 39, 42); font-family: &amp;quot;Droid Sans Mono&amp;quot;, &amp;quot;monospace&amp;quot;, monospace; font-weight: normal; font-size: 14px; line-height: 19px;&quot;&gt;&lt;div&gt;&lt;span style=&quot;color: #f39c12;&quot;&gt;updatePosition&lt;/span&gt;&lt;span style=&quot;color: #dae3e3;&quot;&gt;(*snake);&lt;/span&gt;&lt;/div&gt;&lt;div&gt;&lt;span style=&quot;color: #dae3e3;&quot;&gt;        (&lt;/span&gt;&lt;span style=&quot;color: #f39c12;&quot;&gt;snake&lt;/span&gt;&lt;span style=&quot;color: #dae3e3;&quot;&gt;-&amp;gt;&lt;/span&gt;&lt;span style=&quot;color: #f39c12;&quot;&gt;positionSnake&lt;/span&gt;&lt;span style=&quot;color: #dae3e3;&quot;&gt;-&amp;gt;&lt;/span&gt;&lt;span style=&quot;color: #f39c12;&quot;&gt;y&lt;/span&gt;&lt;span style=&quot;color: #dae3e3;&quot;&gt;) -= (&lt;/span&gt;&lt;span style=&quot;color: #f39c12;&quot;&gt;snake&lt;/span&gt;&lt;span style=&quot;color: #dae3e3;&quot;&gt;-&amp;gt;&lt;/span&gt;&lt;span style=&quot;color: #f39c12;&quot;&gt;velocity&lt;/span&gt;&lt;span style=&quot;color: #dae3e3;&quot;&gt; + &lt;/span&gt;&lt;span style=&quot;color: #7fcbcd;&quot;&gt;1&lt;/span&gt;&lt;span style=&quot;color: #dae3e3;&quot;&gt;);&lt;/span&gt;&lt;/div&gt;&lt;/div&gt;" style="text;whiteSpace=wrap;html=1;fontSize=16;" vertex="1" parent="Oq9BRLi-8kvjzh20djfU-94">
          <mxGeometry x="52" y="40.71428571428578" width="458" height="60" as="geometry" />
        </mxCell>
        <mxCell id="Oq9BRLi-8kvjzh20djfU-96" value="" style="group" vertex="1" connectable="0" parent="1">
          <mxGeometry x="-14.252352941176355" y="196.00470588235294" width="592.5" height="204.49862745098056" as="geometry" />
        </mxCell>
        <mxCell id="Oq9BRLi-8kvjzh20djfU-67" value="&lt;div align=&quot;center&quot; style=&quot;color: rgb(218, 227, 227); background-color: rgb(31, 39, 42); font-family: &amp;quot;Droid Sans Mono&amp;quot;, &amp;quot;monospace&amp;quot;, monospace; font-weight: normal; font-size: 14px; line-height: 19px;&quot;&gt;&lt;div&gt;&lt;span style=&quot;color: #f39c12;&quot;&gt;digitalRead&lt;/span&gt;&lt;span style=&quot;color: #dae3e3;&quot;&gt;(&lt;/span&gt;&lt;span style=&quot;color: #f39c12;&quot;&gt;snake&lt;/span&gt;&lt;span style=&quot;color: #dae3e3;&quot;&gt;-&amp;gt;&lt;/span&gt;&lt;span style=&quot;color: #f39c12;&quot;&gt;controls&lt;/span&gt;&lt;span style=&quot;color: #dae3e3;&quot;&gt;[&lt;/span&gt;&lt;span style=&quot;color: #7fcbcd;&quot;&gt;1&lt;/span&gt;&lt;span style=&quot;color: #dae3e3;&quot;&gt;])&lt;/span&gt;&lt;/div&gt;&lt;/div&gt;" style="text;whiteSpace=wrap;html=1;fontSize=16;align=center;fillColor=#e1d5e7;strokeColor=#9673a6;" vertex="1" parent="Oq9BRLi-8kvjzh20djfU-96">
          <mxGeometry x="303.5" width="289" height="41" as="geometry" />
        </mxCell>
        <mxCell id="Oq9BRLi-8kvjzh20djfU-69" value="&lt;div align=&quot;center&quot; style=&quot;color: rgb(218, 227, 227); background-color: rgb(31, 39, 42); font-family: &amp;quot;Droid Sans Mono&amp;quot;, &amp;quot;monospace&amp;quot;, monospace; font-weight: normal; font-size: 14px; line-height: 19px;&quot;&gt;&lt;div&gt;&lt;span style=&quot;color: #f39c12;&quot;&gt;digitalRead&lt;/span&gt;&lt;span style=&quot;color: #dae3e3;&quot;&gt;(&lt;/span&gt;&lt;span style=&quot;color: #f39c12;&quot;&gt;snake&lt;/span&gt;&lt;span style=&quot;color: #dae3e3;&quot;&gt;-&amp;gt;&lt;/span&gt;&lt;span style=&quot;color: #f39c12;&quot;&gt;controls&lt;/span&gt;&lt;span style=&quot;color: #dae3e3;&quot;&gt;[&lt;/span&gt;&lt;span style=&quot;color: #7fcbcd;&quot;&gt;1&lt;/span&gt;&lt;span style=&quot;color: #dae3e3;&quot;&gt;])&lt;/span&gt;&lt;/div&gt;&lt;/div&gt;" style="text;whiteSpace=wrap;html=1;fontSize=16;align=center;fillColor=#d5e8d4;strokeColor=#82b366;" vertex="1" parent="Oq9BRLi-8kvjzh20djfU-96">
          <mxGeometry width="289" height="41" as="geometry" />
        </mxCell>
        <mxCell id="Oq9BRLi-8kvjzh20djfU-95" value="&lt;div align=&quot;center&quot; style=&quot;color: rgb(218, 227, 227); background-color: rgb(31, 39, 42); font-family: &amp;quot;Droid Sans Mono&amp;quot;, &amp;quot;monospace&amp;quot;, monospace; font-weight: normal; font-size: 14px; line-height: 19px;&quot;&gt;&lt;div&gt;&lt;span style=&quot;color: #dae3e3;&quot;&gt;        &lt;/span&gt;&lt;span style=&quot;color: #f39c12;&quot;&gt;updatePosition&lt;/span&gt;&lt;span style=&quot;color: #dae3e3;&quot;&gt;(*snake);&lt;/span&gt;&lt;/div&gt;&lt;div&gt;&lt;span style=&quot;color: #dae3e3;&quot;&gt;        (&lt;/span&gt;&lt;span style=&quot;color: #f39c12;&quot;&gt;snake&lt;/span&gt;&lt;span style=&quot;color: #dae3e3;&quot;&gt;-&amp;gt;&lt;/span&gt;&lt;span style=&quot;color: #f39c12;&quot;&gt;positionSnake&lt;/span&gt;&lt;span style=&quot;color: #dae3e3;&quot;&gt;-&amp;gt;&lt;/span&gt;&lt;span style=&quot;color: #f39c12;&quot;&gt;y&lt;/span&gt;&lt;span style=&quot;color: #dae3e3;&quot;&gt;) += (&lt;/span&gt;&lt;span style=&quot;color: #f39c12;&quot;&gt;snake&lt;/span&gt;&lt;span style=&quot;color: #dae3e3;&quot;&gt;-&amp;gt;&lt;/span&gt;&lt;span style=&quot;color: #f39c12;&quot;&gt;velocity&lt;/span&gt;&lt;span style=&quot;color: #dae3e3;&quot;&gt; + &lt;/span&gt;&lt;span style=&quot;color: #7fcbcd;&quot;&gt;1&lt;/span&gt;&lt;span style=&quot;color: #dae3e3;&quot;&gt;);&lt;/span&gt;&lt;/div&gt;&lt;/div&gt;" style="text;whiteSpace=wrap;html=1;fontSize=16;align=center;" vertex="1" parent="Oq9BRLi-8kvjzh20djfU-96">
          <mxGeometry x="71.49806722689058" y="44.99243697478994" width="458" height="60" as="geometry" />
        </mxCell>
        <mxCell id="Oq9BRLi-8kvjzh20djfU-90" value="" style="group;fillColor=#f8cecc;strokeColor=#b85450;" vertex="1" connectable="0" parent="Oq9BRLi-8kvjzh20djfU-96">
          <mxGeometry x="-390.74431372549014" y="79.99294117647068" width="458" height="124.50568627450986" as="geometry" />
        </mxCell>
        <mxCell id="Oq9BRLi-8kvjzh20djfU-65" value="&lt;div align=&quot;center&quot; style=&quot;color: rgb(218, 227, 227); background-color: rgb(31, 39, 42); font-family: &amp;quot;Droid Sans Mono&amp;quot;, &amp;quot;monospace&amp;quot;, monospace; font-weight: normal; font-size: 14px; line-height: 19px;&quot;&gt;&lt;div&gt;&lt;span style=&quot;color: #f39c12;&quot;&gt;digitalRead&lt;/span&gt;&lt;span style=&quot;color: #dae3e3;&quot;&gt;(&lt;/span&gt;&lt;span style=&quot;color: #f39c12;&quot;&gt;snake&lt;/span&gt;&lt;span style=&quot;color: #dae3e3;&quot;&gt;-&amp;gt;&lt;/span&gt;&lt;span style=&quot;color: #f39c12;&quot;&gt;controls&lt;/span&gt;&lt;span style=&quot;color: #dae3e3;&quot;&gt;[&lt;/span&gt;&lt;span style=&quot;color: #7fcbcd;&quot;&gt;3&lt;/span&gt;&lt;span style=&quot;color: #dae3e3;&quot;&gt;]&lt;/span&gt;&lt;/div&gt;&lt;/div&gt;" style="text;whiteSpace=wrap;html=1;fontSize=16;align=center;" vertex="1" parent="Oq9BRLi-8kvjzh20djfU-90">
          <mxGeometry x="79.00019607843114" width="281" height="41" as="geometry" />
        </mxCell>
        <mxCell id="Oq9BRLi-8kvjzh20djfU-89" value="&lt;div align=&quot;center&quot; style=&quot;color: rgb(218, 227, 227); background-color: rgb(31, 39, 42); font-family: &amp;quot;Droid Sans Mono&amp;quot;, &amp;quot;monospace&amp;quot;, monospace; font-weight: normal; font-size: 14px; line-height: 19px;&quot;&gt;&lt;div&gt;&lt;span style=&quot;color: #f39c12;&quot;&gt;updatePosition&lt;/span&gt;&lt;span style=&quot;color: #dae3e3;&quot;&gt;(*snake);&lt;/span&gt;&lt;/div&gt;&lt;div&gt;&lt;span style=&quot;color: #dae3e3;&quot;&gt;        (&lt;/span&gt;&lt;span style=&quot;color: #f39c12;&quot;&gt;snake&lt;/span&gt;&lt;span style=&quot;color: #dae3e3;&quot;&gt;-&amp;gt;&lt;/span&gt;&lt;span style=&quot;color: #f39c12;&quot;&gt;positionSnake&lt;/span&gt;&lt;span style=&quot;color: #dae3e3;&quot;&gt;-&amp;gt;&lt;/span&gt;&lt;span style=&quot;color: #f39c12;&quot;&gt;x&lt;/span&gt;&lt;span style=&quot;color: #dae3e3;&quot;&gt;) -= (&lt;/span&gt;&lt;span style=&quot;color: #f39c12;&quot;&gt;snake&lt;/span&gt;&lt;span style=&quot;color: #dae3e3;&quot;&gt;-&amp;gt;&lt;/span&gt;&lt;span style=&quot;color: #f39c12;&quot;&gt;velocity&lt;/span&gt;&lt;span style=&quot;color: #dae3e3;&quot;&gt; + &lt;/span&gt;&lt;span style=&quot;color: #7fcbcd;&quot;&gt;1&lt;/span&gt;&lt;span style=&quot;color: #dae3e3;&quot;&gt;);&lt;/span&gt;&lt;/div&gt;&lt;/div&gt;" style="text;whiteSpace=wrap;html=1;fontSize=16;align=center;" vertex="1" parent="Oq9BRLi-8kvjzh20djfU-90">
          <mxGeometry y="64.50568627450986" width="458" height="60" as="geometry" />
        </mxCell>
        <mxCell id="Oq9BRLi-8kvjzh20djfU-28" value="" style="ellipse;whiteSpace=wrap;html=1;aspect=fixed;fontSize=16;strokeWidth=3;rotation=-270;fillColor=#e1d5e7;strokeColor=#9673a6;" vertex="1" parent="1">
          <mxGeometry x="539" y="105" width="80" height="80" as="geometry" />
        </mxCell>
        <mxCell id="Oq9BRLi-8kvjzh20djfU-29" value="" style="endArrow=classic;html=1;rounded=0;fontSize=12;curved=1;shape=flexArrow;strokeWidth=5;exitX=0.5;exitY=1;exitDx=0;exitDy=0;entryX=0.5;entryY=0;entryDx=0;entryDy=0;" edge="1" parent="1" source="Oq9BRLi-8kvjzh20djfU-28" target="Oq9BRLi-8kvjzh20djfU-28">
          <mxGeometry width="50" height="50" relative="1" as="geometry">
            <mxPoint x="328" y="-98" as="sourcePoint" />
            <mxPoint x="263" y="-100" as="targetPoint" />
          </mxGeometry>
        </mxCell>
        <mxCell id="Oq9BRLi-8kvjzh20djfU-56" value="RIGHT" style="text;html=1;align=center;verticalAlign=middle;resizable=0;points=[];autosize=1;strokeColor=none;fillColor=none;fontSize=16;" vertex="1" parent="1">
          <mxGeometry x="619" y="133.5" width="67" height="31" as="geometry" />
        </mxCell>
        <mxCell id="Oq9BRLi-8kvjzh20djfU-98" style="edgeStyle=orthogonalEdgeStyle;curved=1;rounded=0;orthogonalLoop=1;jettySize=auto;html=1;exitX=1;exitY=0;exitDx=0;exitDy=0;entryX=0;entryY=0;entryDx=0;entryDy=0;fontSize=12;startSize=8;endSize=8;" edge="1" parent="1" source="Oq9BRLi-8kvjzh20djfU-21" target="Oq9BRLi-8kvjzh20djfU-21">
          <mxGeometry relative="1" as="geometry">
            <Array as="points">
              <mxPoint x="-44" y="85" />
              <mxPoint x="-151" y="85" />
              <mxPoint x="-151" y="205" />
              <mxPoint x="-44" y="205" />
            </Array>
          </mxGeometry>
        </mxCell>
        <mxCell id="Oq9BRLi-8kvjzh20djfU-99" style="edgeStyle=orthogonalEdgeStyle;curved=1;rounded=0;orthogonalLoop=1;jettySize=auto;html=1;exitX=0;exitY=0;exitDx=0;exitDy=0;entryX=1;entryY=0;entryDx=0;entryDy=0;fontSize=12;startSize=8;endSize=8;" edge="1" parent="1" source="Oq9BRLi-8kvjzh20djfU-28" target="Oq9BRLi-8kvjzh20djfU-28">
          <mxGeometry relative="1" as="geometry">
            <Array as="points">
              <mxPoint x="607" y="89" />
              <mxPoint x="719" y="89" />
              <mxPoint x="719" y="209" />
              <mxPoint x="607" y="209" />
            </Array>
          </mxGeometry>
        </mxCell>
        <mxCell id="Oq9BRLi-8kvjzh20djfU-111" value="&lt;div align=&quot;center&quot; style=&quot;color: rgb(218, 227, 227); background-color: rgb(31, 39, 42); font-family: &amp;quot;Droid Sans Mono&amp;quot;, &amp;quot;monospace&amp;quot;, monospace; font-weight: normal; font-size: 14px; line-height: 19px;&quot;&gt;&lt;div&gt;&lt;span style=&quot;color: #f39c12;&quot;&gt;updatePosition&lt;/span&gt;&lt;span style=&quot;color: #dae3e3;&quot;&gt;(*snake);&lt;/span&gt;&lt;/div&gt;&lt;div&gt;&lt;span style=&quot;color: #dae3e3;&quot;&gt;        (&lt;/span&gt;&lt;span style=&quot;color: #f39c12;&quot;&gt;snake&lt;/span&gt;&lt;span style=&quot;color: #dae3e3;&quot;&gt;-&amp;gt;&lt;/span&gt;&lt;span style=&quot;color: #f39c12;&quot;&gt;positionSnake&lt;/span&gt;&lt;span style=&quot;color: #dae3e3;&quot;&gt;-&amp;gt;&lt;/span&gt;&lt;span style=&quot;color: #f39c12;&quot;&gt;x&lt;/span&gt;&lt;span style=&quot;color: #dae3e3;&quot;&gt;) += (&lt;/span&gt;&lt;span style=&quot;color: #f39c12;&quot;&gt;snake&lt;/span&gt;&lt;span style=&quot;color: #dae3e3;&quot;&gt;-&amp;gt;&lt;/span&gt;&lt;span style=&quot;color: #f39c12;&quot;&gt;velocity&lt;/span&gt;&lt;span style=&quot;color: #dae3e3;&quot;&gt; + &lt;/span&gt;&lt;span style=&quot;color: #7fcbcd;&quot;&gt;1&lt;/span&gt;&lt;span style=&quot;color: #dae3e3;&quot;&gt;);&lt;/span&gt;&lt;/div&gt;&lt;/div&gt;" style="text;whiteSpace=wrap;html=1;fontSize=16;align=center;fillColor=#d5e8d4;strokeColor=#82b366;" vertex="1" parent="1">
          <mxGeometry x="-609.9969230769232" y="119.0069230769231" width="458" height="60" as="geometry" />
        </mxCell>
        <mxCell id="Oq9BRLi-8kvjzh20djfU-112" value="&lt;div align=&quot;center&quot; style=&quot;color: rgb(218, 227, 227); background-color: rgb(31, 39, 42); font-family: &amp;quot;Droid Sans Mono&amp;quot;, &amp;quot;monospace&amp;quot;, monospace; font-weight: normal; font-size: 14px; line-height: 19px;&quot;&gt;&lt;div&gt;&lt;span style=&quot;color: #f39c12;&quot;&gt;updatePosition&lt;/span&gt;&lt;span style=&quot;color: #dae3e3;&quot;&gt;(*snake);&lt;/span&gt;&lt;/div&gt;&lt;div&gt;&lt;span style=&quot;color: #dae3e3;&quot;&gt;        (&lt;/span&gt;&lt;span style=&quot;color: #f39c12;&quot;&gt;snake&lt;/span&gt;&lt;span style=&quot;color: #dae3e3;&quot;&gt;-&amp;gt;&lt;/span&gt;&lt;span style=&quot;color: #f39c12;&quot;&gt;positionSnake&lt;/span&gt;&lt;span style=&quot;color: #dae3e3;&quot;&gt;-&amp;gt;&lt;/span&gt;&lt;span style=&quot;color: #f39c12;&quot;&gt;x&lt;/span&gt;&lt;span style=&quot;color: #dae3e3;&quot;&gt;) -= (&lt;/span&gt;&lt;span style=&quot;color: #f39c12;&quot;&gt;snake&lt;/span&gt;&lt;span style=&quot;color: #dae3e3;&quot;&gt;-&amp;gt;&lt;/span&gt;&lt;span style=&quot;color: #f39c12;&quot;&gt;velocity&lt;/span&gt;&lt;span style=&quot;color: #dae3e3;&quot;&gt; + &lt;/span&gt;&lt;span style=&quot;color: #7fcbcd;&quot;&gt;1&lt;/span&gt;&lt;span style=&quot;color: #dae3e3;&quot;&gt;);&lt;/span&gt;&lt;/div&gt;&lt;/div&gt;" style="text;whiteSpace=wrap;html=1;fontSize=16;align=center;fillColor=#e1d5e7;strokeColor=#9673a6;" vertex="1" parent="1">
          <mxGeometry x="721.0011111111108" y="119.0069230769231" width="458" height="60" as="geometry" />
        </mxCell>
      </root>
    </mxGraphModel>
  </diagram>
</mxfile>
